<?xml version="1.0" encoding="UTF-8"?>
<svg xmlns="http://www.w3.org/2000/svg" xmlns:xlink="http://www.w3.org/1999/xlink" width="1174.54pt" height="375.15pt" viewBox="0 0 1174.54 375.15" version="1.1">
<defs>
<clipPath id="clip1">
  <path d="M 985 15 L 1174.539063 15 L 1174.539063 280 L 985 280 Z M 985 15 "/>
</clipPath>
<clipPath id="clip2">
  <path d="M 86 331 L 118 331 L 118 375.148438 L 86 375.148438 Z M 86 331 "/>
</clipPath>
<clipPath id="clip3">
  <path d="M 268 332 L 304 332 L 304 375.148438 L 268 375.148438 Z M 268 332 "/>
</clipPath>
<clipPath id="clip4">
  <path d="M 373 331 L 416 331 L 416 375.148438 L 373 375.148438 Z M 373 331 "/>
</clipPath>
<clipPath id="clip5">
  <path d="M 465 331 L 498 331 L 498 375.148438 L 465 375.148438 Z M 465 331 "/>
</clipPath>
<clipPath id="clip6">
  <path d="M 518 332 L 554 332 L 554 375.148438 L 518 375.148438 Z M 518 332 "/>
</clipPath>
<clipPath id="clip7">
  <path d="M 764 331 L 807 331 L 807 375.148438 L 764 375.148438 Z M 764 331 "/>
</clipPath>
</defs>
<g id="surface1">
<path style=" stroke:none;fill-rule:nonzero;fill:rgb(76.951599%,26.268005%,17.651367%);fill-opacity:1;" d="M 226.027344 36.230469 L 190.441406 90.410156 C 190.441406 90.410156 159.019531 63.320313 124.394531 63.320313 C 89.769531 63.320313 91.371094 105.480469 114.457031 110.929688 C 137.539063 116.382813 231.15625 136.257813 231.15625 204.546875 C 231.15625 272.835938 160.945313 295.601563 124.714844 295.601563 C 88.488281 295.601563 16.351563 272.195313 0 244.300781 C 9.296875 235.324219 49.050781 197.492188 49.050781 197.492188 C 49.050781 197.492188 88.488281 230.835938 120.226563 230.835938 C 151.96875 230.835938 154.210938 209.675781 154.210938 204.226563 C 154.210938 198.777344 149.082031 182.105469 111.570313 171.203125 C 74.058594 160.304688 19.554688 142.992188 19.554688 90.410156 C 19.554688 37.832031 67.96875 0 122.152344 0 C 176.335938 0 226.027344 36.230469 226.027344 36.230469 "/>
<path style=" stroke:none;fill-rule:nonzero;fill:rgb(76.951599%,26.268005%,17.651367%);fill-opacity:1;" d="M 621.667969 36.230469 L 586.082031 90.410156 C 586.082031 90.410156 554.660156 63.320313 520.035156 63.320313 C 485.410156 63.320313 487.015625 105.480469 510.097656 110.929688 C 533.183594 116.382813 626.800781 136.257813 626.800781 204.546875 C 626.800781 272.835938 556.585938 295.601563 520.355469 295.601563 C 484.128906 295.601563 411.992188 272.195313 395.640625 244.300781 C 404.9375 235.324219 444.695313 197.492188 444.695313 197.492188 C 444.695313 197.492188 484.128906 230.835938 515.867188 230.835938 C 547.609375 230.835938 549.851563 209.675781 549.851563 204.226563 C 549.851563 198.777344 544.722656 182.105469 507.210938 171.203125 C 469.703125 160.304688 415.199219 142.992188 415.199219 90.410156 C 415.199219 37.832031 463.609375 0 517.792969 0 C 571.976563 0 621.667969 36.230469 621.667969 36.230469 "/>
<path style=" stroke:none;fill-rule:nonzero;fill:rgb(76.951599%,26.268005%,17.651367%);fill-opacity:1;" d="M 272.195313 285.660156 L 353.628906 285.660156 L 353.628906 6.734375 L 272.195313 6.734375 Z M 272.195313 285.660156 "/>
<path style=" stroke:none;fill-rule:nonzero;fill:rgb(76.951599%,26.268005%,17.651367%);fill-opacity:1;" d="M 672.953125 6.734375 L 844.15625 6.734375 L 844.15625 73.421875 L 753.746094 73.421875 L 753.746094 118.945313 L 849.285156 118.945313 L 849.285156 177.296875 L 753.746094 177.296875 L 753.746094 223.144531 L 861.148438 223.144531 L 861.148438 289.507813 L 672.953125 289.507813 "/>
<path style=" stroke:none;fill-rule:nonzero;fill:rgb(12.939453%,9.812927%,8.227539%);fill-opacity:1;" d="M 900.183594 81.433594 L 971.359375 81.433594 L 1015.359375 148.121094 L 972.078125 215.367188 L 900.183594 215.367188 L 945.386719 148.402344 "/>
<g clip-path="url(#clip1)" clip-rule="nonzero">
<path style=" stroke:none;fill-rule:nonzero;fill:rgb(12.939453%,9.812927%,8.227539%);fill-opacity:1;" d="M 985.542969 15.550781 L 1087.980469 15.550781 L 1174.539063 148.402344 L 1086.539063 279.089844 L 985.542969 279.089844 L 1072.109375 147.800781 "/>
</g>
<path style=" stroke:none;fill-rule:nonzero;fill:rgb(12.939453%,9.812927%,8.227539%);fill-opacity:1;" d="M 1.273438 374.425781 L 4.425781 374.425781 L 4.425781 332.019531 L 1.273438 332.019531 Z M 1.273438 374.425781 "/>
<path style=" stroke:none;fill-rule:nonzero;fill:rgb(12.939453%,9.812927%,8.227539%);fill-opacity:1;" d="M 29.316406 332.019531 L 32.285156 332.019531 L 61.546875 368.914063 L 61.546875 332.019531 L 64.578125 332.019531 L 64.578125 374.425781 L 62.214844 374.425781 L 32.347656 336.742188 L 32.347656 374.425781 L 29.316406 374.425781 "/>
<g clip-path="url(#clip2)" clip-rule="nonzero">
<path style=" stroke:none;fill-rule:nonzero;fill:rgb(12.939453%,9.812927%,8.227539%);fill-opacity:1;" d="M 86.316406 368.246094 L 88.375 365.882813 C 93.039063 370.183594 97.339844 372.183594 103.582031 372.183594 C 109.941406 372.183594 114.304688 368.609375 114.304688 363.761719 L 114.304688 363.640625 C 114.304688 359.160156 111.941406 356.550781 102.308594 354.613281 C 92.132813 352.554688 88.011719 349.101563 88.011719 342.679688 L 88.011719 342.558594 C 88.011719 336.257813 93.769531 331.410156 101.644531 331.410156 C 107.824219 331.410156 111.882813 333.109375 116.183594 336.5625 L 114.183594 339.042969 C 110.183594 335.59375 106.1875 334.257813 101.523438 334.257813 C 95.28125 334.257813 91.164063 337.835938 91.164063 342.257813 L 91.164063 342.378906 C 91.164063 346.859375 93.464844 349.585938 103.523438 351.644531 C 113.335938 353.644531 117.453125 357.15625 117.453125 363.339844 L 117.453125 363.460938 C 117.453125 370.304688 111.578125 375.03125 103.398438 375.03125 C 96.613281 375.03125 91.40625 372.789063 86.316406 368.246094 "/>
</g>
<path style=" stroke:none;fill-rule:nonzero;fill:rgb(12.939453%,9.812927%,8.227539%);fill-opacity:1;" d="M 150.527344 334.925781 L 135.742188 334.925781 L 135.742188 332.019531 L 168.460938 332.019531 L 168.460938 334.925781 L 153.675781 334.925781 L 153.675781 374.425781 L 150.527344 374.425781 "/>
<path style=" stroke:none;fill-rule:nonzero;fill:rgb(12.939453%,9.812927%,8.227539%);fill-opacity:1;" d="M 190.320313 374.425781 L 193.472656 374.425781 L 193.472656 332.019531 L 190.320313 332.019531 Z M 190.320313 374.425781 "/>
<path style=" stroke:none;fill-rule:nonzero;fill:rgb(12.939453%,9.812927%,8.227539%);fill-opacity:1;" d="M 230.117188 334.925781 L 215.332031 334.925781 L 215.332031 332.019531 L 248.050781 332.019531 L 248.050781 334.925781 L 233.265625 334.925781 L 233.265625 374.425781 L 230.117188 374.425781 "/>
<g clip-path="url(#clip3)" clip-rule="nonzero">
<path style=" stroke:none;fill-rule:nonzero;fill:rgb(12.939453%,9.812927%,8.227539%);fill-opacity:1;" d="M 268.820313 356.796875 L 268.820313 332.019531 L 271.96875 332.019531 L 271.96875 356.492188 C 271.96875 366.488281 277.363281 372.242188 286.328125 372.242188 C 294.933594 372.242188 300.445313 367.035156 300.445313 356.796875 L 300.445313 332.019531 L 303.597656 332.019531 L 303.597656 356.433594 C 303.597656 368.609375 296.503906 375.089844 286.207031 375.089844 C 276.03125 375.089844 268.820313 368.667969 268.820313 356.796875 "/>
</g>
<path style=" stroke:none;fill-rule:nonzero;fill:rgb(12.939453%,9.812927%,8.227539%);fill-opacity:1;" d="M 339.148438 334.925781 L 324.363281 334.925781 L 324.363281 332.019531 L 357.082031 332.019531 L 357.082031 334.925781 L 342.296875 334.925781 L 342.296875 374.425781 L 339.148438 374.425781 "/>
<g clip-path="url(#clip4)" clip-rule="nonzero">
<path style=" stroke:none;fill-rule:nonzero;fill:rgb(12.939453%,9.812927%,8.227539%);fill-opacity:1;" d="M 412.6875 353.34375 L 412.6875 353.21875 C 412.6875 342.742188 405.054688 334.136719 394.574219 334.136719 C 384.09375 334.136719 376.582031 342.617188 376.582031 353.101563 L 376.582031 353.21875 C 376.582031 363.703125 384.214844 372.304688 394.695313 372.304688 C 405.175781 372.304688 412.6875 363.824219 412.6875 353.34375 M 373.308594 353.34375 L 373.308594 353.21875 C 373.308594 341.648438 381.851563 331.289063 394.695313 331.289063 C 407.539063 331.289063 415.960938 341.527344 415.960938 353.101563 L 415.960938 353.21875 C 415.960938 364.792969 407.417969 375.148438 394.574219 375.148438 C 381.730469 375.148438 373.308594 364.910156 373.308594 353.34375 "/>
</g>
<g clip-path="url(#clip5)" clip-rule="nonzero">
<path style=" stroke:none;fill-rule:nonzero;fill:rgb(12.939453%,9.812927%,8.227539%);fill-opacity:1;" d="M 465.863281 368.246094 L 467.921875 365.882813 C 472.585938 370.183594 476.886719 372.183594 483.128906 372.183594 C 489.488281 372.183594 493.851563 368.609375 493.851563 363.761719 L 493.851563 363.640625 C 493.851563 359.160156 491.488281 356.550781 481.855469 354.613281 C 471.679688 352.554688 467.558594 349.101563 467.558594 342.679688 L 467.558594 342.558594 C 467.558594 336.257813 473.316406 331.410156 481.191406 331.410156 C 487.371094 331.410156 491.429688 333.109375 495.730469 336.5625 L 493.730469 339.042969 C 489.730469 335.59375 485.734375 334.257813 481.070313 334.257813 C 474.828125 334.257813 470.710938 337.835938 470.710938 342.257813 L 470.710938 342.378906 C 470.710938 346.859375 473.011719 349.585938 483.070313 351.644531 C 492.882813 353.644531 497.003906 357.15625 497.003906 363.339844 L 497.003906 363.460938 C 497.003906 370.304688 491.125 375.03125 482.945313 375.03125 C 476.160156 375.03125 470.953125 372.789063 465.863281 368.246094 "/>
</g>
<g clip-path="url(#clip6)" clip-rule="nonzero">
<path style=" stroke:none;fill-rule:nonzero;fill:rgb(12.939453%,9.812927%,8.227539%);fill-opacity:1;" d="M 518.5625 356.796875 L 518.5625 332.019531 L 521.710938 332.019531 L 521.710938 356.492188 C 521.710938 366.488281 527.101563 372.242188 536.070313 372.242188 C 544.671875 372.242188 550.1875 367.035156 550.1875 356.796875 L 550.1875 332.019531 L 553.335938 332.019531 L 553.335938 356.433594 C 553.335938 368.609375 546.246094 375.089844 535.949219 375.089844 C 525.769531 375.089844 518.5625 368.667969 518.5625 356.796875 "/>
</g>
<path style=" stroke:none;fill-rule:nonzero;fill:rgb(12.939453%,9.812927%,8.227539%);fill-opacity:1;" d="M 591.917969 355.703125 C 599.792969 355.703125 605.125 351.585938 605.125 345.285156 L 605.125 345.164063 C 605.125 338.441406 599.914063 334.925781 592.28125 334.925781 L 580.285156 334.925781 L 580.285156 355.703125 Z M 577.136719 332.019531 L 592.523438 332.019531 C 601.855469 332.019531 608.273438 336.800781 608.273438 344.980469 L 608.273438 345.101563 C 608.273438 354.011719 600.582031 358.613281 591.734375 358.613281 L 580.285156 358.613281 L 580.285156 374.425781 L 577.136719 374.425781 "/>
<path style=" stroke:none;fill-rule:nonzero;fill:rgb(12.939453%,9.812927%,8.227539%);fill-opacity:1;" d="M 629.46875 332.019531 L 659.640625 332.019531 L 659.640625 334.925781 L 632.621094 334.925781 L 632.621094 351.585938 L 656.914063 351.585938 L 656.914063 354.492188 L 632.621094 354.492188 L 632.621094 371.515625 L 659.945313 371.515625 L 659.945313 374.425781 L 629.46875 374.425781 "/>
<path style=" stroke:none;fill-rule:nonzero;fill:rgb(12.939453%,9.812927%,8.227539%);fill-opacity:1;" d="M 699.371094 354.007813 C 706.460938 354.007813 711.734375 350.4375 711.734375 344.316406 L 711.734375 344.195313 C 711.734375 338.5 707.246094 334.925781 699.554688 334.925781 L 685.074219 334.925781 L 685.074219 354.007813 Z M 681.925781 332.019531 L 699.738281 332.019531 C 704.949219 332.019531 709.128906 333.652344 711.671875 336.199219 C 713.671875 338.195313 714.882813 341.042969 714.882813 344.070313 L 714.882813 344.195313 C 714.882813 351.28125 709.609375 355.34375 702.460938 356.3125 L 716.457031 374.425781 L 712.460938 374.425781 L 698.949219 356.855469 L 685.074219 356.855469 L 685.074219 374.425781 L 681.925781 374.425781 "/>
<path style=" stroke:none;fill-rule:nonzero;fill:rgb(12.939453%,9.812927%,8.227539%);fill-opacity:1;" d="M 738.019531 374.425781 L 741.167969 374.425781 L 741.167969 332.019531 L 738.019531 332.019531 Z M 738.019531 374.425781 "/>
<g clip-path="url(#clip7)" clip-rule="nonzero">
<path style=" stroke:none;fill-rule:nonzero;fill:rgb(12.939453%,9.812927%,8.227539%);fill-opacity:1;" d="M 803.5625 353.34375 L 803.5625 353.21875 C 803.5625 342.742188 795.925781 334.136719 785.449219 334.136719 C 774.964844 334.136719 767.453125 342.617188 767.453125 353.101563 L 767.453125 353.21875 C 767.453125 363.703125 775.085938 372.304688 785.570313 372.304688 C 796.046875 372.304688 803.5625 363.824219 803.5625 353.34375 M 764.183594 353.34375 L 764.183594 353.21875 C 764.183594 341.648438 772.722656 331.289063 785.570313 331.289063 C 798.410156 331.289063 806.832031 341.527344 806.832031 353.101563 L 806.832031 353.21875 C 806.832031 364.792969 798.289063 375.148438 785.449219 375.148438 C 772.601563 375.148438 764.183594 364.910156 764.183594 353.34375 "/>
</g>
<path style=" stroke:none;fill-rule:nonzero;fill:rgb(12.939453%,9.812927%,8.227539%);fill-opacity:1;" d="M 846.867188 354.007813 C 853.953125 354.007813 859.222656 350.4375 859.222656 344.316406 L 859.222656 344.195313 C 859.222656 338.5 854.742188 334.925781 847.046875 334.925781 L 832.570313 334.925781 L 832.570313 354.007813 Z M 829.417969 332.019531 L 847.230469 332.019531 C 852.4375 332.019531 856.621094 333.652344 859.164063 336.199219 C 861.160156 338.195313 862.375 341.042969 862.375 344.070313 L 862.375 344.195313 C 862.375 351.28125 857.105469 355.34375 849.953125 356.3125 L 863.949219 374.425781 L 859.953125 374.425781 L 846.441406 356.855469 L 832.570313 356.855469 L 832.570313 374.425781 L 829.417969 374.425781 "/>
</g>
</svg>
